M48
;Layer_Color=9474304
;FILE_FORMAT=4:4
METRIC,TZ
;TYPE=PLATED
T1F00S00C0.3000
T2F00S00C1.0000
%
T01
X84000Y114250
Y127250
X94000Y120750
X106000Y146750
Y159750
Y172750
X136000Y179250
Y166250
Y153250
Y140250
X164000
Y153250
Y166250
Y179250
X173000Y202000
X127000
X174000Y51000
Y42000
X198000Y68000
X210000Y114250
X194000Y133750
Y146750
Y159750
Y172750
X446000
Y159750
Y146750
X476000Y153250
Y140250
Y166250
Y179250
X504000
Y166250
Y153250
Y140250
X534000Y133750
Y146750
Y159750
Y172750
X513000Y202000
X467000
X434000Y120750
X424000Y127250
Y114250
X550000Y114250
X581000Y107000
X538000Y68000
X514000Y51000
Y42000
X597000Y80000
X592000Y107000
X603000
X621000Y100000
X639000Y105000
X647000Y114250
Y127250
X657000Y120750
X669000Y179250
X684000Y197000
X699000Y172750
X727000
Y159750
X757000Y166250
Y179250
X764000Y193000
X757000Y133750
X773000Y114250
X783000Y103000
X793000Y97000
X803000Y106000
X761000Y68000
X737000Y51000
Y42000
X858000Y139000
X866000Y147000
Y163000
X858000Y171000
X984000Y127250
Y114250
X604000Y142000
X1006000Y146750
Y159750
Y172750
X1036000Y179250
Y166250
Y153250
Y140250
X1064000
Y153250
Y166250
Y179250
X1073000Y202000
X1027000
X1094000Y172750
Y159750
Y146750
X1094000Y133750
X1110000Y114250
X1109000Y69250
X1074000Y51000
Y42000
X994000Y120750
X1324000Y127250
Y114250
X1334000Y120750
X1346000Y146750
Y159750
Y172750
X1376000Y179250
Y166250
Y153250
Y140250
X1367000Y202000
X1413000
X1404000Y179250
Y166250
Y153250
Y140250
X1434000Y133750
Y146750
Y159750
Y172750
X1450000Y114250
X1495000Y105000
X1506000
X1517000
X1528000
X1539000
X1547000Y114250
Y127250
X1557000Y120750
X1569000Y179250
X1584000Y197000
X1599000Y172750
X1627000
Y159750
X1657000Y166250
Y179250
X1664000Y193000
X1657000Y133750
X1661000Y68000
X1562000Y43000
X1551000
X1414000Y42000
Y51000
X1430000Y66000
X929000Y551000
X919000
X924000Y563000
X929000Y575000
X919000
X800000Y574000
X801000Y582000
X781000Y575000
X771000
X776000Y563000
X781000Y551000
X771000
X775000Y532000
Y522000
X765000
Y532000
Y512000
X775000
X785000
Y522000
Y532000
T02
X800000Y523000
X820000Y533000
X840000Y523000
X860000Y533000
X880000Y523000
X900000Y533000
M30
