G04*
G04 #@! TF.GenerationSoftware,Altium Limited,Altium Designer,21.3.2 (30)*
G04*
G04 Layer_Color=16711935*
%FSLAX44Y44*%
%MOMM*%
G71*
G04*
G04 #@! TF.SameCoordinates,78750805-DB91-4CD3-9BAD-7DFD151DFB16*
G04*
G04*
G04 #@! TF.FilePolarity,Negative*
G04*
G01*
G75*
%ADD16C,1.7032*%
G04:AMPARAMS|DCode=28|XSize=1.1532mm|YSize=1.1032mm|CornerRadius=0.3266mm|HoleSize=0mm|Usage=FLASHONLY|Rotation=180.000|XOffset=0mm|YOffset=0mm|HoleType=Round|Shape=RoundedRectangle|*
%AMROUNDEDRECTD28*
21,1,1.1532,0.4500,0,0,180.0*
21,1,0.5000,1.1032,0,0,180.0*
1,1,0.6532,-0.2500,0.2250*
1,1,0.6532,0.2500,0.2250*
1,1,0.6532,0.2500,-0.2250*
1,1,0.6532,-0.2500,-0.2250*
%
%ADD28ROUNDEDRECTD28*%
G04:AMPARAMS|DCode=29|XSize=1.1532mm|YSize=1.1032mm|CornerRadius=0.3266mm|HoleSize=0mm|Usage=FLASHONLY|Rotation=90.000|XOffset=0mm|YOffset=0mm|HoleType=Round|Shape=RoundedRectangle|*
%AMROUNDEDRECTD29*
21,1,1.1532,0.4500,0,0,90.0*
21,1,0.5000,1.1032,0,0,90.0*
1,1,0.6532,0.2250,0.2500*
1,1,0.6532,0.2250,-0.2500*
1,1,0.6532,-0.2250,-0.2500*
1,1,0.6532,-0.2250,0.2500*
%
%ADD29ROUNDEDRECTD29*%
%ADD30O,1.7032X0.6532*%
G04:AMPARAMS|DCode=31|XSize=1.8032mm|YSize=3.2032mm|CornerRadius=0.5016mm|HoleSize=0mm|Usage=FLASHONLY|Rotation=0.000|XOffset=0mm|YOffset=0mm|HoleType=Round|Shape=RoundedRectangle|*
%AMROUNDEDRECTD31*
21,1,1.8032,2.2000,0,0,0.0*
21,1,0.8000,3.2032,0,0,0.0*
1,1,1.0032,0.4000,-1.1000*
1,1,1.0032,-0.4000,-1.1000*
1,1,1.0032,-0.4000,1.1000*
1,1,1.0032,0.4000,1.1000*
%
%ADD31ROUNDEDRECTD31*%
G04:AMPARAMS|DCode=32|XSize=1.2032mm|YSize=5.7032mm|CornerRadius=0.3516mm|HoleSize=0mm|Usage=FLASHONLY|Rotation=0.000|XOffset=0mm|YOffset=0mm|HoleType=Round|Shape=RoundedRectangle|*
%AMROUNDEDRECTD32*
21,1,1.2032,5.0000,0,0,0.0*
21,1,0.5000,5.7032,0,0,0.0*
1,1,0.7032,0.2500,-2.5000*
1,1,0.7032,-0.2500,-2.5000*
1,1,0.7032,-0.2500,2.5000*
1,1,0.7032,0.2500,2.5000*
%
%ADD32ROUNDEDRECTD32*%
D16*
X800000Y523000D02*
D03*
X820000Y533000D02*
D03*
X900000D02*
D03*
X880000Y523000D02*
D03*
X860000Y533000D02*
D03*
X840000Y523000D02*
D03*
D28*
X198000Y96000D02*
D03*
Y80000D02*
D03*
X538000Y96000D02*
D03*
Y80000D02*
D03*
X761000D02*
D03*
Y96000D02*
D03*
X1098000D02*
D03*
Y80000D02*
D03*
X1438000Y96000D02*
D03*
Y80000D02*
D03*
X1661000Y96000D02*
D03*
Y80000D02*
D03*
D29*
X498000Y80000D02*
D03*
X482000D02*
D03*
X498000Y96000D02*
D03*
X482000D02*
D03*
X721000Y80000D02*
D03*
X705000D02*
D03*
X721000Y96000D02*
D03*
X705000D02*
D03*
X1058000Y80000D02*
D03*
X1042000D02*
D03*
X1058000Y96000D02*
D03*
X1042000D02*
D03*
X1398000Y80000D02*
D03*
X1382000D02*
D03*
X1398000Y96000D02*
D03*
X1382000D02*
D03*
X1621000D02*
D03*
X1605000D02*
D03*
X1621000Y80000D02*
D03*
X1605000D02*
D03*
X142000D02*
D03*
X158000D02*
D03*
X142000Y96000D02*
D03*
X158000D02*
D03*
D30*
X1584000Y114250D02*
D03*
Y120750D02*
D03*
Y127250D02*
D03*
Y133750D02*
D03*
Y140250D02*
D03*
Y146750D02*
D03*
Y153250D02*
D03*
Y159750D02*
D03*
Y166250D02*
D03*
Y172750D02*
D03*
Y179250D02*
D03*
Y185750D02*
D03*
X1642000Y114250D02*
D03*
Y120750D02*
D03*
Y127250D02*
D03*
Y133750D02*
D03*
Y140250D02*
D03*
Y146750D02*
D03*
Y153250D02*
D03*
Y159750D02*
D03*
Y166250D02*
D03*
Y172750D02*
D03*
Y179250D02*
D03*
Y185750D02*
D03*
X1079000D02*
D03*
Y179250D02*
D03*
Y172750D02*
D03*
Y166250D02*
D03*
Y159750D02*
D03*
Y153250D02*
D03*
Y146750D02*
D03*
Y140250D02*
D03*
Y133750D02*
D03*
Y127250D02*
D03*
Y120750D02*
D03*
Y114250D02*
D03*
X1021000Y185750D02*
D03*
Y179250D02*
D03*
Y172750D02*
D03*
Y166250D02*
D03*
Y159750D02*
D03*
Y153250D02*
D03*
Y146750D02*
D03*
Y140250D02*
D03*
Y133750D02*
D03*
Y127250D02*
D03*
Y120750D02*
D03*
Y114250D02*
D03*
X1419000Y185750D02*
D03*
Y179250D02*
D03*
Y172750D02*
D03*
Y166250D02*
D03*
Y159750D02*
D03*
Y153250D02*
D03*
Y146750D02*
D03*
Y140250D02*
D03*
Y133750D02*
D03*
Y127250D02*
D03*
Y120750D02*
D03*
Y114250D02*
D03*
X1361000Y185750D02*
D03*
Y179250D02*
D03*
Y172750D02*
D03*
Y166250D02*
D03*
Y159750D02*
D03*
Y153250D02*
D03*
Y146750D02*
D03*
Y140250D02*
D03*
Y133750D02*
D03*
Y127250D02*
D03*
Y120750D02*
D03*
Y114250D02*
D03*
X742000Y185750D02*
D03*
Y179250D02*
D03*
Y172750D02*
D03*
Y166250D02*
D03*
Y159750D02*
D03*
Y153250D02*
D03*
Y146750D02*
D03*
Y140250D02*
D03*
Y133750D02*
D03*
Y127250D02*
D03*
Y120750D02*
D03*
Y114250D02*
D03*
X684000Y185750D02*
D03*
Y179250D02*
D03*
Y172750D02*
D03*
Y166250D02*
D03*
Y159750D02*
D03*
Y153250D02*
D03*
Y146750D02*
D03*
Y140250D02*
D03*
Y133750D02*
D03*
Y127250D02*
D03*
Y120750D02*
D03*
Y114250D02*
D03*
X519000Y185750D02*
D03*
Y179250D02*
D03*
Y172750D02*
D03*
Y166250D02*
D03*
Y159750D02*
D03*
Y153250D02*
D03*
Y146750D02*
D03*
Y140250D02*
D03*
Y133750D02*
D03*
Y127250D02*
D03*
Y120750D02*
D03*
Y114250D02*
D03*
X461000Y185750D02*
D03*
Y179250D02*
D03*
Y172750D02*
D03*
Y166250D02*
D03*
Y159750D02*
D03*
Y153250D02*
D03*
Y146750D02*
D03*
Y140250D02*
D03*
Y133750D02*
D03*
Y127250D02*
D03*
Y120750D02*
D03*
Y114250D02*
D03*
X179000Y185750D02*
D03*
Y179250D02*
D03*
Y172750D02*
D03*
Y166250D02*
D03*
Y159750D02*
D03*
Y153250D02*
D03*
Y146750D02*
D03*
Y140250D02*
D03*
Y133750D02*
D03*
Y127250D02*
D03*
Y120750D02*
D03*
Y114250D02*
D03*
X121000Y185750D02*
D03*
Y179250D02*
D03*
Y172750D02*
D03*
Y166250D02*
D03*
Y159750D02*
D03*
Y153250D02*
D03*
Y146750D02*
D03*
Y140250D02*
D03*
Y133750D02*
D03*
Y127250D02*
D03*
Y120750D02*
D03*
Y114250D02*
D03*
D31*
X924000Y563000D02*
D03*
X776000D02*
D03*
D32*
X900000Y541000D02*
D03*
X800000D02*
D03*
X820000D02*
D03*
X840000D02*
D03*
X860000D02*
D03*
X880000D02*
D03*
M02*
