G04*
G04 #@! TF.GenerationSoftware,Altium Limited,Altium Designer,21.3.2 (30)*
G04*
G04 Layer_Color=16711935*
%FSLAX44Y44*%
%MOMM*%
G71*
G04*
G04 #@! TF.SameCoordinates,78750805-DB91-4CD3-9BAD-7DFD151DFB16*
G04*
G04*
G04 #@! TF.FilePolarity,Positive*
G04*
G01*
G75*
%ADD34C,0.8000*%
D34*
X1682000Y600000D02*
X1682183Y597438D01*
X1682729Y594929D01*
X1683627Y592523D01*
X1684857Y590269D01*
X1686396Y588213D01*
X1688212Y586396D01*
X1690269Y584857D01*
X1692522Y583627D01*
X1694929Y582729D01*
X1697438Y582183D01*
X1700000Y582000D01*
Y18000D02*
X1697438Y17817D01*
X1694929Y17271D01*
X1692522Y16373D01*
X1690269Y15143D01*
X1688212Y13604D01*
X1686396Y11788D01*
X1684857Y9732D01*
X1683627Y7477D01*
X1682729Y5071D01*
X1682183Y2562D01*
X1682000Y0D01*
X18000D02*
X17817Y2562D01*
X17271Y5071D01*
X16373Y7477D01*
X15143Y9732D01*
X13604Y11788D01*
X11788Y13604D01*
X9732Y15143D01*
X7477Y16373D01*
X5071Y17271D01*
X2562Y17817D01*
X-0Y18000D01*
Y582000D02*
X2562Y582183D01*
X5071Y582729D01*
X7477Y583627D01*
X9732Y584857D01*
X11788Y586396D01*
X13604Y588213D01*
X15143Y590269D01*
X16373Y592523D01*
X17271Y594929D01*
X17817Y597438D01*
X18000Y600000D01*
X1725000Y18000D02*
Y582000D01*
X-25000Y18000D02*
Y582000D01*
X1700000D02*
X1725000D01*
X-25000Y18000D02*
X-0D01*
X18000Y0D02*
X1682000D01*
X18000Y600000D02*
X1682000D01*
X1700000Y18000D02*
X1725000D01*
X-25000Y582000D02*
X-0D01*
M02*
