G04*
G04 #@! TF.GenerationSoftware,Altium Limited,Altium Designer,21.3.2 (30)*
G04*
G04 Layer_Physical_Order=1*
G04 Layer_Color=255*
%FSLAX44Y44*%
%MOMM*%
G71*
G04*
G04 #@! TF.SameCoordinates,78750805-DB91-4CD3-9BAD-7DFD151DFB16*
G04*
G04*
G04 #@! TF.FilePolarity,Positive*
G04*
G01*
G75*
%ADD10C,0.2000*%
G04:AMPARAMS|DCode=12|XSize=0.8mm|YSize=0.8mm|CornerRadius=0.2mm|HoleSize=0mm|Usage=FLASHONLY|Rotation=270.000|XOffset=0mm|YOffset=0mm|HoleType=Round|Shape=RoundedRectangle|*
%AMROUNDEDRECTD12*
21,1,0.8000,0.4000,0,0,270.0*
21,1,0.4000,0.8000,0,0,270.0*
1,1,0.4000,-0.2000,-0.2000*
1,1,0.4000,-0.2000,0.2000*
1,1,0.4000,0.2000,0.2000*
1,1,0.4000,0.2000,-0.2000*
%
%ADD12ROUNDEDRECTD12*%
G04:AMPARAMS|DCode=13|XSize=0.8mm|YSize=0.8mm|CornerRadius=0.2mm|HoleSize=0mm|Usage=FLASHONLY|Rotation=180.000|XOffset=0mm|YOffset=0mm|HoleType=Round|Shape=RoundedRectangle|*
%AMROUNDEDRECTD13*
21,1,0.8000,0.4000,0,0,180.0*
21,1,0.4000,0.8000,0,0,180.0*
1,1,0.4000,-0.2000,0.2000*
1,1,0.4000,0.2000,0.2000*
1,1,0.4000,0.2000,-0.2000*
1,1,0.4000,-0.2000,-0.2000*
%
%ADD13ROUNDEDRECTD13*%
%ADD17C,0.6000*%
%ADD18C,0.4000*%
%ADD19R,1.8000X3.2000*%
%ADD20C,0.6000*%
%ADD21C,1.5000*%
G36*
X993000Y582000D02*
X993000Y515000D01*
X1606000D01*
X1620000Y501000D01*
Y477000D01*
X886000D01*
Y487000D01*
X892000Y493000D01*
X944000D01*
X966000Y515000D01*
Y563000D01*
X946000Y583000D01*
X825000D01*
X805000Y563000D01*
X805000Y540000D01*
Y512000D01*
X797000Y504000D01*
X762000D01*
X729000Y537000D01*
X693000D01*
X671000Y559000D01*
X136000D01*
X114000Y537000D01*
Y510000D01*
X641000D01*
X657000Y494000D01*
X712000D01*
X720000Y486000D01*
Y477000D01*
X19000D01*
X-8000Y450000D01*
Y167000D01*
X8000Y151000D01*
Y87000D01*
X39000Y56000D01*
X1572000D01*
Y43000D01*
X1563000Y34000D01*
X142000D01*
X23000Y34000D01*
X-19000Y76000D01*
Y497143D01*
X-4000Y510000D01*
X79000D01*
Y555000D01*
X109000Y585000D01*
X715000D01*
X760000Y540000D01*
X795000D01*
Y583000D01*
X806000Y594000D01*
X981000D01*
X993000Y582000D01*
D02*
G37*
D10*
X434000Y120750D02*
X657000D01*
X994000D02*
X1334000D01*
X970750Y114250D02*
X984000D01*
X954000Y131000D02*
X970750Y114250D01*
X839250Y131000D02*
X954000D01*
X822500Y114250D02*
X839250Y131000D01*
X773000Y114250D02*
X822500D01*
X1390000Y403000D02*
Y421636D01*
X1386636Y425000D02*
X1390000Y421636D01*
X1376636Y425000D02*
X1386636D01*
X1390000Y273000D02*
Y304636D01*
X1050000Y403000D02*
Y421636D01*
X1046636Y425000D02*
X1050000Y421636D01*
X1036636Y425000D02*
X1046636D01*
X1050000Y273000D02*
Y304636D01*
X490000Y403000D02*
Y421636D01*
X486636Y425000D02*
X490000Y421636D01*
X476636Y425000D02*
X486636D01*
X490000Y273000D02*
Y304636D01*
X150000Y403000D02*
Y421636D01*
X146636Y425000D02*
X150000Y421636D01*
X136636Y425000D02*
X146636D01*
X150000Y273000D02*
Y304636D01*
X282000Y540000D02*
X302000D01*
X277000Y535000D02*
X282000Y540000D01*
X277000Y506000D02*
Y535000D01*
X3636Y273000D02*
Y293364D01*
X0Y297000D02*
X3636Y293364D01*
X-10000Y297000D02*
X0D01*
X-10000Y427000D02*
X0D01*
X3636Y423364D01*
Y403000D02*
Y423364D01*
X1357000Y513000D02*
Y535000D01*
X1362000Y540000D01*
X1382000D01*
X683636Y273000D02*
Y303364D01*
Y403000D02*
Y420364D01*
X678000Y426000D02*
X683636Y420364D01*
X669000Y426000D02*
X678000D01*
X523636Y273000D02*
Y303364D01*
Y403000D02*
Y420364D01*
X518000Y426000D02*
X523636Y420364D01*
X509000Y426000D02*
X518000D01*
X343636Y273000D02*
Y303364D01*
Y403000D02*
Y420364D01*
X338000Y426000D02*
X343636Y420364D01*
X329000Y426000D02*
X338000D01*
X183636Y273000D02*
Y303364D01*
Y403000D02*
Y420364D01*
X178000Y426000D02*
X183636Y420364D01*
X169000Y426000D02*
X178000D01*
X1583636Y273000D02*
Y303364D01*
Y403000D02*
Y420364D01*
X1578000Y426000D02*
X1583636Y420364D01*
X1569000Y426000D02*
X1578000D01*
X1423636Y273000D02*
Y303364D01*
Y403000D02*
Y420364D01*
X1418000Y426000D02*
X1423636Y420364D01*
X1409000Y426000D02*
X1418000D01*
X1243636Y273000D02*
Y303364D01*
Y403000D02*
Y420364D01*
X1238000Y426000D02*
X1243636Y420364D01*
X1229000Y426000D02*
X1238000D01*
X1083636Y273000D02*
Y303364D01*
Y403000D02*
Y420364D01*
X1078000Y426000D02*
X1083636Y420364D01*
X1069000Y426000D02*
X1078000D01*
X889000D02*
X898000D01*
X903636Y420364D01*
Y403000D02*
Y420364D01*
Y273000D02*
Y303364D01*
X872000Y181000D02*
X872000Y488000D01*
X883000Y499000D02*
X890000D01*
X872000Y488000D02*
X883000Y499000D01*
X900000Y509000D02*
Y533000D01*
X890000Y499000D02*
X900000Y509000D01*
X1696364Y273000D02*
Y304636D01*
X1683000Y425000D02*
X1693000D01*
X1696364Y421636D01*
Y403000D02*
Y421636D01*
X1617000Y460000D02*
X1632000D01*
X1617000Y330000D02*
X1632000D01*
X1617000Y204000D02*
Y220000D01*
Y204000D02*
X1621000Y200000D01*
X1632000D01*
X1536364Y273000D02*
Y304636D01*
X1523000Y425000D02*
X1533000D01*
X1536364Y421636D01*
Y403000D02*
Y421636D01*
X1457000Y460000D02*
X1472000D01*
X1457000Y330000D02*
X1472000D01*
X1457000Y204000D02*
Y220000D01*
Y204000D02*
X1461000Y200000D01*
X1472000D01*
X1356364Y273000D02*
Y304636D01*
X1343000Y425000D02*
X1353000D01*
X1356364Y421636D01*
Y403000D02*
Y421636D01*
X1277000Y460000D02*
X1292000D01*
X1277000Y330000D02*
X1292000D01*
X1277000Y204000D02*
Y220000D01*
Y204000D02*
X1281000Y200000D01*
X1292000D01*
X1196364Y273000D02*
Y304636D01*
X1183000Y425000D02*
X1193000D01*
X1196364Y421636D01*
Y403000D02*
Y421636D01*
X1117000Y460000D02*
X1132000D01*
X1117000Y330000D02*
X1132000D01*
X1117000Y204000D02*
Y220000D01*
Y204000D02*
X1121000Y200000D01*
X1132000D01*
X1016364Y273000D02*
Y304636D01*
X1003000Y425000D02*
X1013000D01*
X1016364Y421636D01*
Y403000D02*
Y421636D01*
X937000Y460000D02*
X952000D01*
X937000Y330000D02*
X952000D01*
X937000Y204000D02*
Y220000D01*
Y204000D02*
X941000Y200000D01*
X952000D01*
X721000D02*
X732000D01*
X717000Y204000D02*
X721000Y200000D01*
X717000Y204000D02*
Y220000D01*
Y330000D02*
X732000D01*
X717000Y460000D02*
X732000D01*
X796364Y403000D02*
Y421636D01*
X793000Y425000D02*
X796364Y421636D01*
X783000Y425000D02*
X793000D01*
X796364Y273000D02*
Y304636D01*
X561000Y200000D02*
X572000D01*
X557000Y204000D02*
X561000Y200000D01*
X557000Y204000D02*
Y220000D01*
Y330000D02*
X572000D01*
X557000Y460000D02*
X572000D01*
X636364Y403000D02*
Y421636D01*
X633000Y425000D02*
X636364Y421636D01*
X623000Y425000D02*
X633000D01*
X636364Y273000D02*
Y304636D01*
X381000Y200000D02*
X392000D01*
X377000Y204000D02*
X381000Y200000D01*
X377000Y204000D02*
Y220000D01*
Y330000D02*
X392000D01*
X377000Y460000D02*
X392000D01*
X456364Y403000D02*
Y421636D01*
X453000Y425000D02*
X456364Y421636D01*
X443000Y425000D02*
X453000D01*
X456364Y273000D02*
Y304636D01*
X221000Y200000D02*
X232000D01*
X217000Y204000D02*
X221000Y200000D01*
X217000Y204000D02*
Y220000D01*
Y330000D02*
X232000D01*
X217000Y460000D02*
X232000D01*
X296364Y403000D02*
Y421636D01*
X293000Y425000D02*
X296364Y421636D01*
X283000Y425000D02*
X293000D01*
X296364Y273000D02*
Y304636D01*
X129000Y222000D02*
Y314000D01*
X119000Y212000D02*
X129000Y222000D01*
X116364Y326636D02*
X129000Y314000D01*
X116364Y273000D02*
Y304636D01*
Y326636D02*
Y387000D01*
X119000Y188500D02*
Y212000D01*
X103000Y425000D02*
X113000D01*
X116364Y421636D01*
Y403000D02*
Y421636D01*
X37000Y460000D02*
X52000D01*
X37000Y330000D02*
X52000D01*
X37000Y204000D02*
Y220000D01*
Y204000D02*
X41000Y200000D01*
X52000D01*
X674000Y512000D02*
X732000D01*
X757000Y350000D02*
Y487000D01*
X732000Y512000D02*
X757000Y487000D01*
X646000Y540000D02*
X674000Y512000D01*
X318000Y540000D02*
X646000D01*
X1657000Y350000D02*
Y524000D01*
X1641000Y540000D02*
X1657000Y524000D01*
X1398000Y540000D02*
X1641000D01*
X840000Y504000D02*
X854000Y490000D01*
Y187000D02*
Y490000D01*
X766000Y139000D02*
X812000D01*
X849000Y176000D02*
Y182000D01*
X812000Y139000D02*
X849000Y176000D01*
Y182000D02*
X854000Y187000D01*
X840000Y504000D02*
Y523000D01*
X876000Y155000D02*
X969000D01*
X838000D02*
X876000D01*
X872000Y181000D02*
X876000Y177000D01*
Y155000D02*
Y177000D01*
X858000Y171000D02*
Y179000D01*
X860000Y181000D01*
X860000Y533000D02*
X860000Y181000D01*
X816750Y133750D02*
X838000Y155000D01*
X969000D02*
X990250Y133750D01*
X838000Y139000D02*
X858000D01*
X958000D01*
X990250Y133750D02*
X1094000D01*
X866000Y147000D02*
X964250D01*
X838000D02*
X866000D01*
X964250D02*
X984000Y127250D01*
Y127250D02*
X1324000D01*
X984000D02*
Y127250D01*
X757000Y133750D02*
X816750D01*
X647000Y127250D02*
X818250D01*
X838000Y147000D01*
X657000Y120750D02*
X819750D01*
X838000Y139000D01*
X424000Y127250D02*
X647000D01*
X958000Y139000D02*
X976250Y120750D01*
X994000D01*
X534000Y133750D02*
X757000D01*
X796364Y324636D02*
X808000Y313000D01*
Y176000D02*
Y313000D01*
X791750Y159750D02*
X808000Y176000D01*
X1324000Y127250D02*
X1547000D01*
X880000Y504000D02*
Y523000D01*
X866000Y163000D02*
X866000Y490000D01*
X880000Y504000D01*
X1094000Y133750D02*
X1434000D01*
X847000Y106000D02*
X865000Y88000D01*
X803000Y106000D02*
X847000D01*
X545000Y107000D02*
X581000D01*
X585000Y100000D02*
X592000Y107000D01*
Y96000D02*
X603000Y107000D01*
X505000Y92000D02*
X599000D01*
X607000Y100000D02*
X621000D01*
X599000Y92000D02*
X607000Y100000D01*
X589000Y88000D02*
X597000Y80000D01*
X490000Y88000D02*
X589000D01*
X763000Y142000D02*
X766000Y139000D01*
X752000Y142000D02*
X763000D01*
X647000Y139000D02*
X749000D01*
X752000Y142000D01*
X604000D02*
X644000D01*
X647000Y139000D01*
X585250Y140250D02*
X640364Y195364D01*
X504000Y140250D02*
X585250D01*
X640364Y195364D02*
Y218000D01*
X584750Y146750D02*
X636364Y198364D01*
X534000Y146750D02*
X584750D01*
X636364Y198364D02*
Y257000D01*
X504000Y153250D02*
X584250D01*
X604000Y173000D02*
Y444000D01*
X584250Y153250D02*
X604000Y173000D01*
X600000Y176000D02*
Y318000D01*
X534000Y159750D02*
X583750D01*
X600000Y176000D01*
X596000Y179000D02*
Y192000D01*
X583250Y166250D02*
X596000Y179000D01*
X504000Y166250D02*
X583250D01*
X536000Y116000D02*
X545000Y107000D01*
X448000Y116000D02*
X536000D01*
X438000Y106000D02*
X448000Y116000D01*
X477686Y106000D02*
X502657D01*
X467686Y96000D02*
X477686Y106000D01*
X479343Y102000D02*
X501000D01*
X469343Y92000D02*
X479343Y102000D01*
X471000Y88000D02*
X481000Y98000D01*
X370000Y88000D02*
X471000D01*
X481000Y98000D02*
X499000D01*
X385000Y92000D02*
X469343D01*
X387000Y96000D02*
X467686D01*
X413000Y110000D02*
X417000Y106000D01*
X438000D01*
X226000Y110000D02*
X413000D01*
X222000Y106000D02*
X226000Y110000D01*
X201000Y106000D02*
X222000D01*
X192750Y114250D02*
X201000Y106000D01*
X84000Y114250D02*
X192750D01*
X1434000Y133750D02*
X1657000D01*
X1334000Y120750D02*
X1557000D01*
X1450000Y88000D02*
X1511000D01*
X1528000Y105000D01*
X1465000Y92000D02*
X1504000D01*
X1517000Y105000D01*
X1490000Y100000D02*
X1495000Y105000D01*
X1467000Y96000D02*
X1497000D01*
X1506000Y105000D01*
X1539000Y95000D02*
Y105000D01*
X1546000Y88000D02*
X1570000D01*
X1539000Y95000D02*
X1546000Y88000D01*
X210000Y114250D02*
X424000Y114250D01*
X1437686Y106000D02*
X1462657D01*
X1547000Y114250D02*
X1547000Y114250D01*
X1450000Y114250D02*
X1547000D01*
X1191000Y88000D02*
X1201000Y98000D01*
X1090000Y88000D02*
X1191000D01*
X1219000Y98000D02*
X1225000Y92000D01*
X1201000Y98000D02*
X1219000D01*
X1225000Y92000D02*
X1309343D01*
X1210000Y88000D02*
X1311000D01*
X1309343Y92000D02*
X1319343Y102000D01*
X1311000Y88000D02*
X1321000Y98000D01*
X1339000D02*
X1345000Y92000D01*
X1321000Y98000D02*
X1339000D01*
X1319343Y102000D02*
X1341000D01*
X1347000Y96000D01*
X1427686D01*
X1345000Y92000D02*
X1429343D01*
X1330000Y88000D02*
X1431000D01*
X1427686Y96000D02*
X1437686Y106000D01*
X1431000Y88000D02*
X1441000Y98000D01*
X1429343Y92000D02*
X1439343Y102000D01*
X1441000Y98000D02*
X1459000D01*
X1465000Y92000D01*
X1439343Y102000D02*
X1461000D01*
X1467000Y96000D01*
X1462657Y106000D02*
X1468657Y100000D01*
X1490000D01*
X1627000Y172750D02*
X1666750D01*
X1678000Y184000D01*
X1663000Y228000D02*
X1678000Y213000D01*
Y184000D02*
Y213000D01*
X1663000Y228000D02*
Y344000D01*
X1657000Y350000D02*
X1663000Y344000D01*
X1583636Y327364D02*
Y387000D01*
Y327364D02*
X1595000Y316000D01*
X1648000Y187000D02*
Y200000D01*
X1643000Y182000D02*
X1648000Y187000D01*
X1608250Y182000D02*
X1643000D01*
X1599000Y172750D02*
X1608250Y182000D01*
X1584000Y237000D02*
X1595000Y248000D01*
Y316000D01*
X1584000Y197000D02*
Y237000D01*
X1569000Y179250D02*
X1575000Y185250D01*
Y248364D01*
X1583636Y257000D01*
X1648000Y228000D02*
Y330000D01*
X1657000Y179250D02*
X1665250D01*
X1664000Y193000D02*
Y212000D01*
X1648000Y228000D02*
X1664000Y212000D01*
X1648000Y460000D02*
X1648000Y460000D01*
Y350000D02*
X1657000Y341000D01*
X1648000Y350000D02*
Y460000D01*
X1665250Y179250D02*
X1672000Y186000D01*
X1696364Y324636D02*
Y387000D01*
Y324636D02*
X1708000Y313000D01*
Y176000D02*
Y313000D01*
X1627000Y159750D02*
X1691750D01*
X1708000Y176000D01*
X1657000Y166250D02*
X1685250D01*
X1696364Y177364D01*
Y257000D01*
X1657000Y226000D02*
Y341000D01*
Y226000D02*
X1672000Y211000D01*
Y186000D02*
Y211000D01*
X793000Y97000D02*
X841000D01*
X850000Y88000D01*
X783000Y94000D02*
X789000Y88000D01*
X835000D01*
X783000Y94000D02*
Y103000D01*
X757000Y350000D02*
X763000Y344000D01*
Y228000D02*
Y344000D01*
X778000Y184000D02*
Y213000D01*
X763000Y228000D02*
X778000Y213000D01*
X766750Y172750D02*
X778000Y184000D01*
X772000Y186000D02*
Y211000D01*
X757000Y226000D02*
X772000Y211000D01*
X757000Y226000D02*
Y341000D01*
X796364Y177364D02*
Y257000D01*
X785250Y166250D02*
X796364Y177364D01*
X757000Y166250D02*
X785250D01*
X727000Y159750D02*
X791750D01*
X796364Y324636D02*
Y387000D01*
X765250Y179250D02*
X772000Y186000D01*
X727000Y172750D02*
X766750D01*
X748000Y350000D02*
Y460000D01*
Y350000D02*
X757000Y341000D01*
X748000Y460000D02*
X748000Y460000D01*
X748000Y228000D02*
X764000Y212000D01*
Y193000D02*
Y212000D01*
X757000Y179250D02*
X765250D01*
X748000Y228000D02*
Y330000D01*
X675000Y248364D02*
X683636Y257000D01*
X675000Y185250D02*
Y248364D01*
X669000Y179250D02*
X675000Y185250D01*
X684000Y197000D02*
Y237000D01*
X695000Y248000D02*
Y316000D01*
X684000Y237000D02*
X695000Y248000D01*
X699000Y172750D02*
X708250Y182000D01*
X743000D01*
X748000Y187000D01*
Y200000D01*
X683636Y327364D02*
X695000Y316000D01*
X683636Y327364D02*
Y387000D01*
X507000Y96000D02*
X592000D01*
X508657Y100000D02*
X585000D01*
X502657Y106000D02*
X508657Y100000D01*
X501000Y102000D02*
X507000Y96000D01*
X499000Y98000D02*
X505000Y92000D01*
X381000Y102000D02*
X387000Y96000D01*
X359343Y102000D02*
X381000D01*
X361000Y98000D02*
X379000D01*
X385000Y92000D01*
X351000Y88000D02*
X361000Y98000D01*
X349343Y92000D02*
X359343Y102000D01*
X250000Y88000D02*
X351000D01*
X265000Y92000D02*
X349343D01*
X241000Y98000D02*
X259000D01*
X265000Y92000D01*
X550000Y114250D02*
X647000D01*
X194000Y133750D02*
X534000D01*
X94000Y120750D02*
X434000D01*
X84000Y127250D02*
X424000D01*
X130000Y88000D02*
X231000D01*
X241000Y98000D01*
X639000Y93000D02*
Y105000D01*
X610000Y88000D02*
X634000D01*
X639000Y93000D01*
X1132250Y114250D02*
X1324000D01*
X1110000Y111000D02*
X1129000D01*
X1132250Y114250D01*
X1050000Y257000D02*
X1050000Y257000D01*
Y207000D02*
Y257000D01*
X1050000Y314000D02*
X1059000Y305000D01*
X1050000Y314000D02*
Y387000D01*
X1059000Y207000D02*
Y305000D01*
X1016364Y326636D02*
Y387000D01*
X968000Y460000D02*
X984000Y444000D01*
X968000Y330000D02*
X980000Y318000D01*
X968000Y200000D02*
X976000Y192000D01*
X1059000Y207000D02*
X1064000Y202000D01*
X1073000D01*
X1045000D02*
X1050000Y207000D01*
X1027000Y202000D02*
X1045000D01*
X1028250Y179250D02*
X1036000D01*
X1019000Y188500D02*
X1028250Y179250D01*
X903636Y366364D02*
Y387000D01*
X1019000Y188500D02*
Y212000D01*
X1029000Y222000D01*
X1016364Y326636D02*
X1029000Y314000D01*
Y222000D02*
Y314000D01*
X1016364Y257000D02*
X1024000Y249364D01*
X1014000Y215000D02*
X1024000Y225000D01*
Y249364D01*
X1014000Y180000D02*
X1027750Y166250D01*
X1014000Y180000D02*
Y215000D01*
X1027750Y166250D02*
X1036000D01*
X984000Y181000D02*
X992250Y172750D01*
X1006000D01*
X984000Y181000D02*
Y444000D01*
X903636Y257000D02*
X914000Y246636D01*
X903636Y366364D02*
X918000Y352000D01*
X997250Y159750D02*
X1006000D01*
X980000Y177000D02*
Y318000D01*
Y177000D02*
X997250Y159750D01*
X918000Y195000D02*
Y352000D01*
X914000Y192000D02*
Y246636D01*
X918000Y195000D02*
X926000Y187000D01*
X914000Y192000D02*
X924000Y182000D01*
X953000D02*
X994750Y140250D01*
X924000Y182000D02*
X953000D01*
X994750Y140250D02*
X1036000D01*
X955000Y187000D02*
X995250Y146750D01*
X1006000D01*
X926000Y187000D02*
X955000D01*
X976000Y173000D02*
Y192000D01*
X995750Y153250D02*
X1036000D01*
X976000Y173000D02*
X995750Y153250D01*
X1083636Y185886D02*
Y257000D01*
Y326364D02*
Y387000D01*
Y326364D02*
X1096000Y314000D01*
X1087636Y239000D02*
X1096000Y247364D01*
Y314000D01*
X1087636Y193000D02*
Y239000D01*
X1148000Y200000D02*
X1156000Y192000D01*
X1148000Y330000D02*
X1160000Y318000D01*
Y168000D02*
Y318000D01*
X1148000Y460000D02*
X1164000Y444000D01*
X1196364Y325356D02*
Y387000D01*
Y325356D02*
X1208000Y313720D01*
Y225636D02*
Y313720D01*
X1200364Y218000D02*
X1208000Y225636D01*
X1077000Y179250D02*
X1083636Y185886D01*
X1064000Y179250D02*
X1077000D01*
X1087636Y193000D02*
X1094000Y186636D01*
Y172750D02*
Y186636D01*
X1149250Y166250D02*
X1156000Y173000D01*
Y192000D01*
X1064000Y166250D02*
X1149250D01*
X1151750Y159750D02*
X1160000Y168000D01*
X1094000Y159750D02*
X1151750D01*
X1504000Y163000D02*
Y444000D01*
X1404000Y153250D02*
X1494250D01*
X1504000Y163000D01*
X1434000Y159750D02*
X1491750D01*
X1500000Y168000D01*
X1404000Y166250D02*
X1489250D01*
X1496000Y173000D02*
Y192000D01*
X1489250Y166250D02*
X1496000Y173000D01*
X1434000Y172750D02*
Y186636D01*
X1427636Y193000D02*
X1434000Y186636D01*
X1404000Y179250D02*
X1417000D01*
X1423636Y185886D01*
X1488000Y460000D02*
X1504000Y444000D01*
X1500000Y168000D02*
Y318000D01*
X1488000Y330000D02*
X1500000Y318000D01*
X1488000Y200000D02*
X1496000Y192000D01*
X1427636Y193000D02*
Y239000D01*
X1436000Y247364D02*
Y314000D01*
X1427636Y239000D02*
X1436000Y247364D01*
X1423636Y326364D02*
X1436000Y314000D01*
X1423636Y326364D02*
Y387000D01*
Y185886D02*
Y257000D01*
X1316000Y173000D02*
X1335750Y153250D01*
X1376000D01*
X1316000Y173000D02*
Y192000D01*
X1266000Y187000D02*
X1295000D01*
X1335250Y146750D02*
X1346000D01*
X1295000Y187000D02*
X1335250Y146750D01*
X1334750Y140250D02*
X1376000D01*
X1264000Y182000D02*
X1293000D01*
X1334750Y140250D01*
X1254000Y192000D02*
X1264000Y182000D01*
X1258000Y195000D02*
X1266000Y187000D01*
X1254000Y192000D02*
Y246636D01*
X1258000Y195000D02*
Y352000D01*
X1320000Y177000D02*
X1337250Y159750D01*
X1320000Y177000D02*
Y318000D01*
X1337250Y159750D02*
X1346000D01*
X1243636Y366364D02*
X1258000Y352000D01*
X1243636Y257000D02*
X1254000Y246636D01*
X1324000Y181000D02*
Y444000D01*
X1332250Y172750D02*
X1346000D01*
X1324000Y181000D02*
X1332250Y172750D01*
X1367750Y166250D02*
X1376000D01*
X1354000Y180000D02*
Y215000D01*
Y180000D02*
X1367750Y166250D01*
X1364000Y225000D02*
Y249364D01*
X1354000Y215000D02*
X1364000Y225000D01*
X1356364Y257000D02*
X1364000Y249364D01*
X1369000Y222000D02*
Y314000D01*
X1356364Y326636D02*
X1369000Y314000D01*
X1359000Y212000D02*
X1369000Y222000D01*
X1359000Y188500D02*
Y212000D01*
X1243636Y366364D02*
Y387000D01*
X1359000Y188500D02*
X1368250Y179250D01*
X1376000D01*
X1367000Y202000D02*
X1385000D01*
X1390000Y207000D01*
X1404000Y202000D02*
X1413000D01*
X1399000Y207000D02*
X1404000Y202000D01*
X1308000Y200000D02*
X1316000Y192000D01*
X1308000Y330000D02*
X1320000Y318000D01*
X1308000Y460000D02*
X1324000Y444000D01*
X1356364Y326636D02*
Y387000D01*
X1399000Y207000D02*
Y305000D01*
X1390000Y314000D02*
Y387000D01*
Y314000D02*
X1399000Y305000D01*
X1390000Y207000D02*
Y257000D01*
X1390000Y257000D02*
X1390000Y257000D01*
X1154250Y153250D02*
X1164000Y163000D01*
X1064000Y153250D02*
X1154250D01*
X1164000Y163000D02*
Y444000D01*
X1064000Y140250D02*
X1155250D01*
X1200364Y185364D02*
Y218000D01*
X1155250Y140250D02*
X1200364Y185364D01*
X1154750Y146750D02*
X1196364Y188364D01*
X1094000Y146750D02*
X1154750D01*
X1196364Y188364D02*
Y257000D01*
X1536364Y188364D02*
Y257000D01*
X1434000Y146750D02*
X1494750D01*
X1536364Y188364D01*
X1495250Y140250D02*
X1540364Y185364D01*
Y218000D01*
X1404000Y140250D02*
X1495250D01*
X1540364Y218000D02*
X1548000Y225636D01*
Y313720D01*
X1536364Y325356D02*
X1548000Y313720D01*
X1536364Y325356D02*
Y387000D01*
X636364Y325356D02*
Y387000D01*
Y325356D02*
X648000Y313720D01*
Y225636D02*
Y313720D01*
X640364Y218000D02*
X648000Y225636D01*
X296364Y188364D02*
Y257000D01*
X194000Y146750D02*
X254750D01*
X296364Y188364D01*
X255250Y140250D02*
X300364Y185364D01*
Y218000D01*
X164000Y140250D02*
X255250D01*
X264000Y163000D02*
Y444000D01*
X164000Y153250D02*
X254250D01*
X264000Y163000D01*
X490000Y257000D02*
X490000Y257000D01*
Y207000D02*
Y257000D01*
X490000Y314000D02*
X499000Y305000D01*
X490000Y314000D02*
Y387000D01*
X499000Y207000D02*
Y305000D01*
X456364Y326636D02*
Y387000D01*
X408000Y460000D02*
X424000Y444000D01*
X408000Y330000D02*
X420000Y318000D01*
X408000Y200000D02*
X416000Y192000D01*
X499000Y207000D02*
X504000Y202000D01*
X513000D01*
X485000D02*
X490000Y207000D01*
X467000Y202000D02*
X485000D01*
X468250Y179250D02*
X476000D01*
X459000Y188500D02*
X468250Y179250D01*
X343636Y366364D02*
Y387000D01*
X459000Y188500D02*
Y212000D01*
X469000Y222000D01*
X456364Y326636D02*
X469000Y314000D01*
Y222000D02*
Y314000D01*
X456364Y257000D02*
X464000Y249364D01*
X454000Y215000D02*
X464000Y225000D01*
Y249364D01*
X454000Y180000D02*
X467750Y166250D01*
X454000Y180000D02*
Y215000D01*
X467750Y166250D02*
X476000D01*
X424000Y181000D02*
X432250Y172750D01*
X446000D01*
X424000Y181000D02*
Y444000D01*
X343636Y257000D02*
X354000Y246636D01*
X343636Y366364D02*
X358000Y352000D01*
X437250Y159750D02*
X446000D01*
X420000Y177000D02*
Y318000D01*
Y177000D02*
X437250Y159750D01*
X358000Y195000D02*
Y352000D01*
X354000Y192000D02*
Y246636D01*
X358000Y195000D02*
X366000Y187000D01*
X354000Y192000D02*
X364000Y182000D01*
X393000D02*
X434750Y140250D01*
X364000Y182000D02*
X393000D01*
X434750Y140250D02*
X476000D01*
X395000Y187000D02*
X435250Y146750D01*
X446000D01*
X366000Y187000D02*
X395000D01*
X416000Y173000D02*
Y192000D01*
X435750Y153250D02*
X476000D01*
X416000Y173000D02*
X435750Y153250D01*
X523636Y185886D02*
Y257000D01*
Y326364D02*
Y387000D01*
Y326364D02*
X536000Y314000D01*
X527636Y239000D02*
X536000Y247364D01*
Y314000D01*
X527636Y193000D02*
Y239000D01*
X588000Y200000D02*
X596000Y192000D01*
X588000Y330000D02*
X600000Y318000D01*
X588000Y460000D02*
X604000Y444000D01*
X517000Y179250D02*
X523636Y185886D01*
X504000Y179250D02*
X517000D01*
X527636Y193000D02*
X534000Y186636D01*
Y172750D02*
Y186636D01*
X194000Y159750D02*
X251750D01*
X260000Y168000D01*
X164000Y166250D02*
X249250D01*
X256000Y173000D02*
Y192000D01*
X249250Y166250D02*
X256000Y173000D01*
X194000Y172750D02*
Y186636D01*
X187636Y193000D02*
X194000Y186636D01*
X164000Y179250D02*
X177000D01*
X183636Y185886D01*
X300364Y218000D02*
X308000Y225636D01*
Y313720D01*
X296364Y325356D02*
X308000Y313720D01*
X296364Y325356D02*
Y387000D01*
X248000Y460000D02*
X264000Y444000D01*
X260000Y168000D02*
Y318000D01*
X248000Y330000D02*
X260000Y318000D01*
X248000Y200000D02*
X256000Y192000D01*
X187636Y193000D02*
Y239000D01*
X196000Y247364D02*
Y314000D01*
X187636Y239000D02*
X196000Y247364D01*
X183636Y326364D02*
X196000Y314000D01*
X183636Y326364D02*
Y387000D01*
Y185886D02*
Y257000D01*
X76000Y173000D02*
X95750Y153250D01*
X136000D01*
X76000Y173000D02*
Y192000D01*
X26000Y187000D02*
X55000D01*
X95250Y146750D02*
X106000D01*
X55000Y187000D02*
X95250Y146750D01*
X94750Y140250D02*
X136000D01*
X24000Y182000D02*
X53000D01*
X94750Y140250D01*
X14000Y192000D02*
X24000Y182000D01*
X18000Y195000D02*
X26000Y187000D01*
X14000Y192000D02*
Y246636D01*
X18000Y195000D02*
Y352000D01*
X80000Y177000D02*
X97250Y159750D01*
X80000Y177000D02*
Y318000D01*
X97250Y159750D02*
X106000D01*
X3636Y366364D02*
X18000Y352000D01*
X3636Y257000D02*
X14000Y246636D01*
X84000Y181000D02*
Y444000D01*
X92250Y172750D02*
X106000D01*
X84000Y181000D02*
X92250Y172750D01*
X127750Y166250D02*
X136000D01*
X114000Y180000D02*
Y215000D01*
Y180000D02*
X127750Y166250D01*
X124000Y225000D02*
Y249364D01*
X114000Y215000D02*
X124000Y225000D01*
X116364Y257000D02*
X124000Y249364D01*
X3636Y366364D02*
Y387000D01*
X119000Y188500D02*
X128250Y179250D01*
X136000D01*
X127000Y202000D02*
X145000D01*
X150000Y207000D01*
X164000Y202000D02*
X173000D01*
X159000Y207000D02*
X164000Y202000D01*
X68000Y200000D02*
X76000Y192000D01*
X68000Y330000D02*
X80000Y318000D01*
X68000Y460000D02*
X84000Y444000D01*
X159000Y207000D02*
Y305000D01*
X150000Y314000D02*
Y387000D01*
Y314000D02*
X159000Y305000D01*
X150000Y207000D02*
Y257000D01*
X150000Y257000D02*
X150000Y257000D01*
D12*
X1570000Y88000D02*
D03*
Y72000D02*
D03*
X1450000Y88000D02*
D03*
Y72000D02*
D03*
X1330000Y88000D02*
D03*
Y72000D02*
D03*
X1210000Y88000D02*
D03*
Y72000D02*
D03*
X1090000Y88000D02*
D03*
Y72000D02*
D03*
X865000Y88000D02*
D03*
Y72000D02*
D03*
X835000Y88000D02*
D03*
Y72000D02*
D03*
X850000Y88000D02*
D03*
Y72000D02*
D03*
X610000Y88000D02*
D03*
Y72000D02*
D03*
X490000Y88000D02*
D03*
Y72000D02*
D03*
X370000Y88000D02*
D03*
Y72000D02*
D03*
X250000Y88000D02*
D03*
Y72000D02*
D03*
X1696364Y257000D02*
D03*
Y273000D02*
D03*
X1583636Y257000D02*
D03*
Y273000D02*
D03*
X1696364Y387000D02*
D03*
Y403000D02*
D03*
X1583636Y387000D02*
D03*
Y403000D02*
D03*
X1536364Y257000D02*
D03*
Y273000D02*
D03*
X1423636Y257000D02*
D03*
Y273000D02*
D03*
X1536364Y387000D02*
D03*
Y403000D02*
D03*
X1423636Y387000D02*
D03*
Y403000D02*
D03*
X1390000Y257000D02*
D03*
Y273000D02*
D03*
Y387000D02*
D03*
Y403000D02*
D03*
X1243636Y387000D02*
D03*
Y403000D02*
D03*
X1356364Y387000D02*
D03*
Y403000D02*
D03*
Y257000D02*
D03*
Y273000D02*
D03*
X1243636Y257000D02*
D03*
Y273000D02*
D03*
X1196364Y257000D02*
D03*
Y273000D02*
D03*
X1083636Y257000D02*
D03*
Y273000D02*
D03*
X1196364Y387000D02*
D03*
Y403000D02*
D03*
X1083636Y387000D02*
D03*
Y403000D02*
D03*
X1050000Y257000D02*
D03*
Y273000D02*
D03*
Y387000D02*
D03*
Y403000D02*
D03*
X1016364Y257000D02*
D03*
Y273000D02*
D03*
X903636Y257000D02*
D03*
Y273000D02*
D03*
X1016364Y387000D02*
D03*
Y403000D02*
D03*
X903636Y387000D02*
D03*
Y403000D02*
D03*
X796364Y257000D02*
D03*
Y273000D02*
D03*
X683636Y257000D02*
D03*
Y273000D02*
D03*
X796364Y387000D02*
D03*
Y403000D02*
D03*
X683636Y387000D02*
D03*
Y403000D02*
D03*
X636364Y257000D02*
D03*
Y273000D02*
D03*
X523636Y257000D02*
D03*
Y273000D02*
D03*
X636364Y387000D02*
D03*
Y403000D02*
D03*
X523636Y387000D02*
D03*
Y403000D02*
D03*
X490000Y257000D02*
D03*
Y273000D02*
D03*
Y387000D02*
D03*
Y403000D02*
D03*
X456364Y257000D02*
D03*
Y273000D02*
D03*
X343636Y257000D02*
D03*
Y273000D02*
D03*
X456364Y387000D02*
D03*
Y403000D02*
D03*
X343636Y387000D02*
D03*
Y403000D02*
D03*
X296364Y257000D02*
D03*
Y273000D02*
D03*
X183636Y257000D02*
D03*
Y273000D02*
D03*
X296364Y387000D02*
D03*
Y403000D02*
D03*
X183636Y387000D02*
D03*
Y403000D02*
D03*
X150000Y257000D02*
D03*
Y273000D02*
D03*
Y387000D02*
D03*
Y403000D02*
D03*
X130000Y72000D02*
D03*
Y88000D02*
D03*
X116364Y273000D02*
D03*
Y257000D02*
D03*
X3636Y273000D02*
D03*
Y257000D02*
D03*
X116364Y403000D02*
D03*
Y387000D02*
D03*
X3636Y403000D02*
D03*
Y387000D02*
D03*
D13*
X1648000Y200000D02*
D03*
X1632000D02*
D03*
X1648000Y330000D02*
D03*
X1632000D02*
D03*
X1488000Y200000D02*
D03*
X1472000D02*
D03*
X1488000Y330000D02*
D03*
X1472000D02*
D03*
X1308000Y200000D02*
D03*
X1292000D02*
D03*
X1308000Y330000D02*
D03*
X1292000D02*
D03*
X1148000Y200000D02*
D03*
X1132000D02*
D03*
X1148000Y330000D02*
D03*
X1132000D02*
D03*
X1648000Y460000D02*
D03*
X1632000D02*
D03*
X1488000D02*
D03*
X1472000D02*
D03*
X1308000D02*
D03*
X1292000D02*
D03*
X1148000D02*
D03*
X1132000D02*
D03*
X968000Y200000D02*
D03*
X952000D02*
D03*
X968000Y330000D02*
D03*
X952000D02*
D03*
X968000Y460000D02*
D03*
X952000D02*
D03*
X748000Y200000D02*
D03*
X732000D02*
D03*
X748000Y330000D02*
D03*
X732000D02*
D03*
X748000Y460000D02*
D03*
X732000D02*
D03*
X588000Y200000D02*
D03*
X572000D02*
D03*
X588000Y330000D02*
D03*
X572000D02*
D03*
X588000Y460000D02*
D03*
X572000D02*
D03*
X408000Y200000D02*
D03*
X392000D02*
D03*
X408000Y330000D02*
D03*
X392000D02*
D03*
X408000Y460000D02*
D03*
X392000D02*
D03*
X248000Y200000D02*
D03*
X232000D02*
D03*
X248000Y330000D02*
D03*
X232000D02*
D03*
X248000Y460000D02*
D03*
X232000D02*
D03*
X68000Y200000D02*
D03*
X52000D02*
D03*
X1398000Y540000D02*
D03*
X1382000D02*
D03*
X318000D02*
D03*
X302000D02*
D03*
X52000Y330000D02*
D03*
X68000D02*
D03*
X52000Y460000D02*
D03*
X68000D02*
D03*
D17*
X783000Y425000D02*
Y508000D01*
X1376636Y425000D02*
Y479852D01*
Y318000D02*
Y425000D01*
Y318000D02*
X1390000Y304636D01*
X1036636Y425000D02*
Y479852D01*
Y318000D02*
Y425000D01*
Y318000D02*
X1050000Y304636D01*
X476636Y425000D02*
Y479852D01*
Y318000D02*
Y425000D01*
Y318000D02*
X490000Y304636D01*
X136636Y425000D02*
Y479852D01*
Y318000D02*
Y425000D01*
Y318000D02*
X150000Y304636D01*
X1617000Y460000D02*
Y480000D01*
Y330000D02*
Y460000D01*
X1457000D02*
Y480000D01*
Y330000D02*
Y460000D01*
X1277000D02*
Y480000D01*
Y330000D02*
Y460000D01*
X1117000D02*
Y480000D01*
Y330000D02*
Y460000D01*
X937000D02*
Y480000D01*
Y330000D02*
Y460000D01*
X717000D02*
Y480000D01*
Y330000D02*
Y460000D01*
X557000D02*
Y480000D01*
Y330000D02*
Y460000D01*
X377000D02*
Y480000D01*
Y330000D02*
Y460000D01*
X217000D02*
Y480000D01*
Y330000D02*
Y460000D01*
X37000D02*
Y480000D01*
Y330000D02*
Y460000D01*
X1306000Y512000D02*
Y547000D01*
X1319000Y560000D01*
X1651000D01*
X1683000Y528000D01*
Y425000D02*
Y528000D01*
X669000Y318000D02*
X683636Y303364D01*
X669000Y318000D02*
Y426000D01*
Y480000D01*
X509000Y318000D02*
X523636Y303364D01*
X509000Y318000D02*
Y426000D01*
Y480000D01*
X329000Y318000D02*
X343636Y303364D01*
X329000Y318000D02*
Y426000D01*
Y480000D01*
X169000Y318000D02*
X183636Y303364D01*
X169000Y318000D02*
Y426000D01*
Y480000D01*
X1569000Y318000D02*
X1583636Y303364D01*
X1569000Y318000D02*
Y426000D01*
Y480000D01*
X1409000Y318000D02*
X1423636Y303364D01*
X1409000Y318000D02*
Y426000D01*
Y480000D01*
X1229000Y318000D02*
X1243636Y303364D01*
X1229000Y318000D02*
Y426000D01*
Y480000D01*
X1069000Y318000D02*
X1083636Y303364D01*
X1069000Y318000D02*
Y426000D01*
Y480000D01*
X889000Y426000D02*
Y480000D01*
Y318000D02*
Y426000D01*
Y318000D02*
X903636Y303364D01*
X1683000Y318000D02*
X1696364Y304636D01*
X1683000Y318000D02*
Y425000D01*
X1617000Y220000D02*
Y330000D01*
X1523000Y318000D02*
X1536364Y304636D01*
X1523000Y318000D02*
Y425000D01*
Y479852D01*
X1457000Y220000D02*
Y330000D01*
X1343000Y318000D02*
X1356364Y304636D01*
X1343000Y318000D02*
Y425000D01*
Y479852D01*
X1277000Y220000D02*
Y330000D01*
X1183000Y318000D02*
X1196364Y304636D01*
X1183000Y318000D02*
Y425000D01*
Y479852D01*
X1117000Y220000D02*
Y330000D01*
X1003000Y318000D02*
X1016364Y304636D01*
X1003000Y318000D02*
Y425000D01*
Y479852D01*
X937000Y220000D02*
Y330000D01*
X717000Y220000D02*
Y330000D01*
X783000Y318000D02*
Y425000D01*
Y318000D02*
X796364Y304636D01*
X557000Y220000D02*
Y330000D01*
X623000Y425000D02*
Y479852D01*
Y318000D02*
Y425000D01*
Y318000D02*
X636364Y304636D01*
X377000Y220000D02*
Y330000D01*
X443000Y425000D02*
Y479852D01*
Y318000D02*
Y425000D01*
Y318000D02*
X456364Y304636D01*
X217000Y220000D02*
Y330000D01*
X283000Y425000D02*
Y479852D01*
Y318000D02*
Y425000D01*
Y318000D02*
X296364Y304636D01*
X103000Y318000D02*
X116364Y304636D01*
X103000Y318000D02*
Y425000D01*
Y479852D01*
X37000Y220000D02*
Y330000D01*
X52000Y480000D02*
X52000Y480000D01*
D18*
X1570000Y53000D02*
Y72000D01*
X1450000Y53000D02*
Y72000D01*
X1330000Y53000D02*
Y72000D01*
X1210000Y53000D02*
Y72000D01*
X1090000Y53000D02*
Y72000D01*
X865000Y53000D02*
Y72000D01*
X850000Y53000D02*
Y72000D01*
X835000Y53000D02*
Y72000D01*
X610000Y53000D02*
Y72000D01*
X490000Y53000D02*
Y72000D01*
X370000Y53000D02*
Y72000D01*
X250000Y53000D02*
Y72000D01*
X130000Y53000D02*
X130000Y53000D01*
X130000Y53000D02*
Y72000D01*
D19*
X924000Y563000D02*
D03*
X776000D02*
D03*
D20*
X800000Y574000D02*
D03*
X801000Y582000D02*
D03*
X765000Y522000D02*
D03*
X775000D02*
D03*
X765000Y532000D02*
D03*
X785000Y512000D02*
D03*
X775000Y532000D02*
D03*
X765000Y512000D02*
D03*
X785000Y532000D02*
D03*
X775000Y512000D02*
D03*
X785000Y522000D02*
D03*
X771000Y575000D02*
D03*
X781000D02*
D03*
X771000Y551000D02*
D03*
X781000D02*
D03*
X776000Y563000D02*
D03*
X924000D02*
D03*
X929000Y551000D02*
D03*
X919000D02*
D03*
X929000Y575000D02*
D03*
X919000D02*
D03*
X1562000Y43000D02*
D03*
X1551000D02*
D03*
X174000Y42000D02*
D03*
Y51000D02*
D03*
X514000Y42000D02*
D03*
Y51000D02*
D03*
X737000Y42000D02*
D03*
Y51000D02*
D03*
X1074000Y42000D02*
D03*
Y51000D02*
D03*
X1414000D02*
D03*
Y42000D02*
D03*
X858000Y171000D02*
D03*
X866000Y163000D02*
D03*
X858000Y139000D02*
D03*
X866000Y147000D02*
D03*
X984000Y127250D02*
D03*
X647000D02*
D03*
X597000Y80000D02*
D03*
X604000Y142000D02*
D03*
X581000Y107000D02*
D03*
X1430000Y66000D02*
D03*
X1109000Y69250D02*
D03*
X1661000Y68000D02*
D03*
X761000D02*
D03*
X538000D02*
D03*
X198000D02*
D03*
X1547000Y127250D02*
D03*
X1557000Y120750D02*
D03*
X1495000Y105000D02*
D03*
X1506000D02*
D03*
X1517000D02*
D03*
X1528000D02*
D03*
X1539000D02*
D03*
X1627000Y172750D02*
D03*
X1599000D02*
D03*
X1569000Y179250D02*
D03*
X1657000D02*
D03*
X1584000Y197000D02*
D03*
X1664000Y193000D02*
D03*
X1657000Y166250D02*
D03*
X1627000Y159750D02*
D03*
X803000Y106000D02*
D03*
X793000Y97000D02*
D03*
X783000Y103000D02*
D03*
X727000Y159750D02*
D03*
X757000Y166250D02*
D03*
X764000Y193000D02*
D03*
X684000Y197000D02*
D03*
X727000Y172750D02*
D03*
X757000Y179250D02*
D03*
X669000D02*
D03*
X699000Y172750D02*
D03*
X592000Y107000D02*
D03*
X603000D02*
D03*
X621000Y100000D02*
D03*
X639000Y105000D02*
D03*
X1547000Y114250D02*
D03*
X1324000D02*
D03*
X984000D02*
D03*
X647000D02*
D03*
X424000D02*
D03*
X84000D02*
D03*
X1434000Y133750D02*
D03*
X1094000D02*
D03*
X1334000Y120750D02*
D03*
X1324000Y127250D02*
D03*
X994000Y120750D02*
D03*
X657000D02*
D03*
X434000D02*
D03*
X424000Y127250D02*
D03*
X84000D02*
D03*
X94000Y120750D02*
D03*
X773000Y114250D02*
D03*
X757000Y133750D02*
D03*
X1657000D02*
D03*
X1064000Y153250D02*
D03*
X1094000Y159750D02*
D03*
X1064000Y166250D02*
D03*
X1094000Y172750D02*
D03*
X1064000Y179250D02*
D03*
X1036000Y140250D02*
D03*
X1006000Y146750D02*
D03*
X1036000Y153250D02*
D03*
X1006000Y159750D02*
D03*
X1036000Y166250D02*
D03*
X1006000Y172750D02*
D03*
X1036000Y179250D02*
D03*
X1027000Y202000D02*
D03*
X1073000D02*
D03*
X1064000Y140250D02*
D03*
X1404000D02*
D03*
X1413000Y202000D02*
D03*
X1367000D02*
D03*
X1376000Y179250D02*
D03*
X1346000Y172750D02*
D03*
X1376000Y166250D02*
D03*
X1346000Y159750D02*
D03*
X1376000Y153250D02*
D03*
X1346000Y146750D02*
D03*
X1376000Y140250D02*
D03*
X1404000Y179250D02*
D03*
X1434000Y172750D02*
D03*
X1404000Y166250D02*
D03*
X1434000Y159750D02*
D03*
X1404000Y153250D02*
D03*
X1434000Y146750D02*
D03*
X1094000D02*
D03*
X1110000Y114250D02*
D03*
X1450000D02*
D03*
X550000D02*
D03*
X210000D02*
D03*
X194000Y133750D02*
D03*
Y146750D02*
D03*
X534000D02*
D03*
X504000Y153250D02*
D03*
X534000Y159750D02*
D03*
X504000Y166250D02*
D03*
X534000Y172750D02*
D03*
X504000Y179250D02*
D03*
X476000Y140250D02*
D03*
X446000Y146750D02*
D03*
X476000Y153250D02*
D03*
X446000Y159750D02*
D03*
X476000Y166250D02*
D03*
X446000Y172750D02*
D03*
X476000Y179250D02*
D03*
X467000Y202000D02*
D03*
X513000D02*
D03*
X504000Y140250D02*
D03*
X534000Y133750D02*
D03*
X164000Y140250D02*
D03*
X173000Y202000D02*
D03*
X127000D02*
D03*
X136000Y179250D02*
D03*
X106000Y172750D02*
D03*
X136000Y166250D02*
D03*
X106000Y159750D02*
D03*
X136000Y153250D02*
D03*
X106000Y146750D02*
D03*
X136000Y140250D02*
D03*
X164000Y179250D02*
D03*
X194000Y172750D02*
D03*
X164000Y166250D02*
D03*
X194000Y159750D02*
D03*
X164000Y153250D02*
D03*
D21*
X800000Y523000D02*
D03*
X820000Y533000D02*
D03*
X900000D02*
D03*
X880000Y523000D02*
D03*
X860000Y533000D02*
D03*
X840000Y523000D02*
D03*
M02*
